<svg fill="#747474" xmlns="http://www.w3.org/2000/svg"  viewBox="0 0 72 72" width="64px" height="64px"><path d="M 29 11 C 16.869 11 7 19.075 7 29 C 7 34.736565 10.310196 39.841566 15.435547 43.138672 L 12.646484 48.650391 L 20.177734 45.470703 C 21.787797 46.050085 23.490558 46.486302 25.273438 46.736328 C 25.110437 45.841328 25 44.933 25 44 C 25 34.059 34.626 26 46.5 26 C 47.959 26 49.383719 26.125422 50.761719 26.357422 C 49.193719 17.680422 40.033 11 29 11 z M 21.5 21 C 22.881 21 24 22.119 24 23.5 C 24 24.881 22.881 26 21.5 26 C 20.119 26 19 24.881 19 23.5 C 19 22.119 20.119 21 21.5 21 z M 36.5 21 C 37.881 21 39 22.119 39 23.5 C 39 24.881 37.881 26 36.5 26 C 35.119 26 34 24.881 34 23.5 C 34 22.119 35.119 21 36.5 21 z M 46.5 29 C 36.299 29 28 35.729 28 44 C 28 52.271 36.299 59 46.5 59 C 48.91006 59 51.206942 58.61443 53.320312 57.931641 L 61 61.173828 L 58.1875 55.615234 C 62.34171 52.862291 65 48.679328 65 44 C 65 35.729 56.701 29 46.5 29 z M 41.5 40 C 42.881 40 44 41.119 44 42.5 C 44 43.881 42.881 45 41.5 45 C 40.119 45 39 43.881 39 42.5 C 39 41.119 40.119 40 41.5 40 z M 51.5 40 C 52.881 40 54 41.119 54 42.5 C 54 43.881 52.881 45 51.5 45 C 50.119 45 49 43.881 49 42.5 C 49 41.119 50.119 40 51.5 40 z"/></svg>